<?xml version="1.0" encoding="utf-8"?>
<!-- Generator: Adobe Illustrator 17.0.0, SVG Export Plug-In . SVG Version: 6.00 Build 0)  -->
<!DOCTYPE svg PUBLIC "-//W3C//DTD SVG 1.1//EN" "http://www.w3.org/Graphics/SVG/1.1/DTD/svg11.dtd">
<svg version="1.1" id="Layer_1" xmlns="http://www.w3.org/2000/svg" xmlns:xlink="http://www.w3.org/1999/xlink" x="0px" y="0px"
	 width="341px" height="352px" viewBox="0 0 341 352" enable-background="new 0 0 341 352" xml:space="preserve">
<g>
	<g>
		<polygon fill="#FFFFFF" points="56.129,241.403 56.129,240.983 56.129,231.025 56.129,225.555 48.275,225.555 48.275,231.025 
			28.64,231.025 28.64,187.126 48.275,187.126 48.275,196.663 56.129,196.663 56.129,187.126 56.129,176.748 48.275,176.748 
			28.64,176.748 20.786,176.748 20.786,187.126 20.786,231.025 20.786,241.403 28.64,241.403 		"/>
		<path fill="#FFFFFF" d="M69.313,215.457h5.657l8.649,25.946h7.854l-8.648-25.946h10.051v-1.964v-8.415v-17.952v-10.379h-7.854
			H69.313h-7.854v10.379v17.952v10.379v25.946h7.854V215.457z M69.313,187.126h15.708v17.952H69.313V187.126z"/>
		<polygon fill="#FFFFFF" points="106.9,176.748 99.046,176.748 99.046,187.126 99.046,231.025 99.046,241.403 106.9,241.403 
			134.389,241.403 134.389,240.983 134.389,231.025 134.389,225.555 126.535,225.555 126.535,231.025 106.9,231.025 106.9,215.457 
			118.681,215.457 118.681,205.078 106.9,205.078 106.9,187.126 126.535,187.126 126.535,196.663 134.389,196.663 134.389,187.126 
			134.389,176.748 126.535,176.748 		"/>
		<polygon fill="#FFFFFF" points="322.606,241.403 322.606,240.983 322.606,231.025 322.606,225.555 314.752,225.555 
			314.752,231.025 295.117,231.025 295.117,215.457 306.898,215.457 306.898,205.078 295.117,205.078 295.117,187.126 
			314.752,187.126 314.752,196.663 322.606,196.663 322.606,187.126 322.606,176.748 314.752,176.748 295.117,176.748 
			287.263,176.748 287.263,187.126 287.263,231.025 287.263,241.403 295.117,241.403 		"/>
		<path fill="#FFFFFF" d="M147.853,215.457h19.635v25.946h7.854v-54.277v-10.379h-7.854h-19.635h-7.854v10.379v54.277h7.854V215.457
			z M167.489,187.126v17.952h-19.635v-17.952H167.489z"/>
		<polygon fill="#FFFFFF" points="195.383,241.403 208.037,241.403 208.037,187.126 223.589,187.126 223.589,176.748 
			208.037,176.748 195.383,176.748 179.831,176.748 179.831,187.126 195.383,187.126 		"/>
		<rect x="228.019" y="176.748" fill="#FFFFFF" width="11.22" height="64.656"/>
		<polygon fill="#FFFFFF" points="259.634,241.403 266.788,241.403 268.675,241.403 282.377,176.748 273.335,176.748 
			263.169,224.721 252.761,176.748 243.505,176.748 257.532,241.403 		"/>
		<polygon fill="#FFFFFF" points="20.786,266.928 47.013,266.928 47.013,341.401 60.477,341.401 60.477,266.928 86.704,266.928 
			86.704,251.453 20.786,251.453 		"/>
		<path fill="#FFFFFF" d="M139.999,251.453v4.955v10.519v58.999v15.474h13.464h25.806v-4.956v-10.519v-58.999v-15.474h-13.464
			H139.999z M165.805,325.926h-12.342v-58.999h12.342V325.926z"/>
		<path fill="#FFFFFF" d="M186.843,251.453v4.955v10.519v58.999v15.474h13.464h25.806v-4.956v-10.519v-58.999v-15.474h-13.464
			H186.843z M212.649,325.926h-12.342v-58.999h12.342V325.926z"/>
		<path fill="#FFFFFF" d="M104.095,251.453H90.631v15.474v17.614v15.474v41.385h13.464v-41.385h4.262l11.166,41.385h13.464
			l-11.166-41.385h11.166v-1.781v-13.694v-17.614v-15.474h-13.464H104.095z M119.523,284.542h-15.428v-17.614h15.428V284.542z"/>
		<path fill="#FFFFFF" d="M246.169,251.774h-13.464v15.475v17.614v15.475v41.384h13.464v-41.384h28.892v-1.781v-13.694v-17.614
			v-15.475h-13.464H246.169z M261.597,284.863h-15.428v-17.614h15.428V284.863z"/>
		<polygon fill="#FFFFFF" points="294.276,251.453 280.811,251.453 280.811,266.928 280.811,284.542 280.811,298.905 
			280.811,300.016 309.703,300.016 309.703,325.926 294.276,325.926 294.276,321.766 280.811,321.766 280.811,325.926 
			280.811,341.401 294.276,341.401 309.703,341.401 323.167,341.401 323.167,325.926 323.167,300.016 323.167,284.542 
			309.703,284.542 294.276,284.542 294.276,266.928 309.703,266.928 309.703,270.902 323.167,270.902 323.167,266.928 
			323.167,253.5 323.167,251.453 		"/>
	</g>
	<g>
		<path fill="#FFFFFF" d="M217.125,68.572c0-17.612-14.639-31.886-32.251-31.886c0,0-5.251-0.364-9.741-0.364
			c-0.181,0-0.363,0.001-0.546,0.002c-4.359,0.027-9.199,0.362-9.199,0.362c-17.609,0-32.251,14.275-32.251,31.886l-0.671,10.506
			h42.12h43.209L217.125,68.572z"/>
		<path d="M139.191,84.786c-1.336,19.434,9.231,12.268,9.231,12.268l21.257-12.268H139.191z"/>
		<path d="M211.074,84.786h-30.067l20.963,12.268C201.97,97.054,212.391,104.22,211.074,84.786z"/>
		<path d="M181.63,107.318c-2.733-2.915-6.498-3.097-6.498-3.097s-0.202,0.01-0.544,0.061c-1.14,0.169-3.852,0.794-5.954,3.036
			c-2.733,2.915-9.596,9.717-17.552,13.543l1.275,1.154c0,0,8.028-0.219,15.305-3.644c3.732-1.756,5.971-2.084,6.926-2.131
			c0.366-0.018,0.544,0.005,0.544,0.005s2.308-0.304,7.47,2.126c7.277,3.425,15.305,3.644,15.305,3.644l1.275-1.154
			C191.226,117.035,184.363,110.233,181.63,107.318z"/>
		<path d="M154.908,148.084c-2.071,0-3.751,1.679-3.751,3.751s1.679,3.751,3.751,3.751c2.071,0,3.751-1.679,3.751-3.751
			S156.979,148.084,154.908,148.084z M155.181,154.674c-1.417,0-2.566-1.149-2.566-2.566s1.149-2.566,2.566-2.566
			s2.566,1.149,2.566,2.566S156.598,154.674,155.181,154.674z"/>
		<circle cx="155.181" cy="152.108" r="2.566"/>
		<path d="M195.355,148.084c-2.071,0-3.751,1.679-3.751,3.751s1.679,3.751,3.751,3.751c2.071,0,3.751-1.679,3.751-3.751
			S197.426,148.084,195.355,148.084z M195.082,154.674c-1.417,0-2.566-1.149-2.566-2.566s1.149-2.566,2.566-2.566
			s2.566,1.149,2.566,2.566S196.499,154.674,195.082,154.674z"/>
		<polygon points="218.312,79.077 217.796,79.077 174.587,79.077 132.467,79.077 131.95,79.077 131.039,82.478 131.78,82.478 
			174.587,82.478 218.483,82.478 219.223,82.478 		"/>
		<path d="M136.964,109.444v-6.013l-3.462-5.086c0,0,0.287,4.415,0.913,6.422C135.041,106.774,136.964,109.444,136.964,109.444z"/>
		<path d="M216.761,98.345l-3.462,5.086v6.013c0,0,1.923-2.67,2.549-4.676C216.474,102.761,216.761,98.345,216.761,98.345z"/>
		<circle cx="195.082" cy="152.108" r="2.566"/>
		<polygon fill="#FFFFFF" points="149.49,8.096 142.647,10.073 150.32,32.159 153.284,31.129 		"/>
		<polygon fill="#FFFFFF" points="129.743,10.492 122.883,16.473 141.402,37.946 144.858,35.505 		"/>
		<polygon fill="#FFFFFF" points="118.102,28.794 114.437,34.932 135.444,44.525 137.313,41.71 		"/>
		<polygon fill="#494949" points="134.895,72.519 132.884,72.271 132.467,79.077 135.259,79.077 		"/>
		<polygon fill="#494949" points="215.419,72.519 217.388,72.271 217.796,79.077 215.062,79.077 		"/>
		<polygon points="184.932,144.011 183.29,142.189 183.29,140.469 181.325,138.646 181.325,137.328 179.182,135.871 
			179.182,134.935 177.196,132.917 173.067,132.917 171.08,134.935 171.08,135.871 168.937,137.328 168.937,138.646 
			166.973,140.469 166.973,142.189 165.331,144.011 165.331,157.254 166.973,159.076 166.973,160.347 168.937,161.947 
			171.08,161.947 171.08,162.615 173.067,163.708 177.196,163.708 179.182,162.615 179.182,161.947 181.325,161.947 183.29,160.347 
			183.29,159.076 184.932,157.254 		"/>
		<path fill="#FFFFFF" d="M229.516,122.836c0-6.267-4.109-11.572-9.78-13.373l-0.62-9.717c0.723-1.256,1.274-3.046,1.55-5.126
			c0.136-0.135,0.221-0.323,0.221-0.53v-5.339c0-0.229-0.105-0.431-0.267-0.568c-0.372-2.503-1.146-4.551-2.136-5.705h-43.896
			H131.78c-0.996,1.161-1.773,3.227-2.143,5.75c-0.133,0.135-0.215,0.319-0.215,0.523v1.788c-0.014,0.338-0.022,0.679-0.022,1.026
			c0,0.338,0.009,0.672,0.022,1.002v1.523c0,0.177,0.064,0.337,0.166,0.465c0.273,2.108,0.828,3.922,1.559,5.192l-0.62,9.717
			c-5.671,1.8-9.78,7.106-9.78,13.373c0,4.94,1.006,8.951,2.705,11.989l-0.002,0.002l0.019,0.029
			c0.372,0.661,0.777,1.274,1.212,1.842l12.555,19.085c0,0,4.555,6.832,15.669,6.832c6.582,0,10.542-2.322,12.679-5.08l-0.253-0.281
			v-13.242l1.642-1.822v-1.721l1.964-1.822v-1.318l2.143-1.458v-0.936l1.987-2.018h4.129l1.987,2.018v0.936l2.143,1.458v1.318
			l1.964,1.822v1.721l1.642,1.822v13.242l-0.253,0.281c2.137,2.758,6.097,5.08,12.679,5.08c11.114,0,15.669-6.832,15.669-6.832
			l12.555-19.085c0.435-0.568,0.84-1.181,1.212-1.842l0.019-0.029l-0.002-0.002C228.51,131.787,229.516,127.776,229.516,122.836z
			 M136.964,109.444c0,0-1.923-2.67-2.549-4.676c-0.626-2.006-0.913-6.422-0.913-6.422l3.462,5.086V109.444z M139.191,84.786h30.488
			l-21.257,12.268C148.422,97.054,137.855,104.22,139.191,84.786z M154.908,155.585c-2.071,0-3.751-1.679-3.751-3.751
			s1.679-3.751,3.751-3.751c2.071,0,3.751,1.679,3.751,3.751S156.979,155.585,154.908,155.585z M195.355,155.585
			c-2.071,0-3.751-1.679-3.751-3.751s1.679-3.751,3.751-3.751c2.071,0,3.751,1.679,3.751,3.751S197.426,155.585,195.355,155.585z
			 M197.906,122.015c0,0-8.028-0.219-15.305-3.644c-5.162-2.429-7.47-2.126-7.47-2.126s-0.178-0.023-0.544-0.005
			c-0.955,0.047-3.194,0.375-6.926,2.131c-7.277,3.425-15.305,3.644-15.305,3.644l-1.275-1.154
			c7.956-3.826,14.819-10.628,17.552-13.543c2.102-2.243,4.814-2.867,5.954-3.036c0.342-0.051,0.544-0.061,0.544-0.061
			s3.765,0.182,6.498,3.097c2.733,2.915,9.596,9.717,17.552,13.543L197.906,122.015z M201.97,97.054l-20.963-12.268h30.067
			C212.391,104.22,201.97,97.054,201.97,97.054z M215.848,104.767c-0.626,2.006-2.549,4.676-2.549,4.676v-6.013l3.462-5.086
			C216.761,98.345,216.474,102.761,215.848,104.767z"/>
	</g>
</g>
</svg>
