<?xml version="1.0" encoding="utf-8"?>
<!-- Generator: Adobe Illustrator 17.0.0, SVG Export Plug-In . SVG Version: 6.00 Build 0)  -->
<!DOCTYPE svg PUBLIC "-//W3C//DTD SVG 1.1//EN" "http://www.w3.org/Graphics/SVG/1.1/DTD/svg11.dtd">
<svg version="1.1" id="Layer_1" xmlns="http://www.w3.org/2000/svg" xmlns:xlink="http://www.w3.org/1999/xlink" x="0px" y="0px"
	 width="700px" height="700px" viewBox="0 0 700 700" enable-background="new 0 0 700 700" xml:space="preserve">
<g>
	<g>
		<polygon fill="#FFFFFF" points="120.334,482.755 120.334,481.921 120.334,462.19 120.334,451.352 104.772,451.352 104.772,462.19 
			65.866,462.19 65.866,375.207 104.772,375.207 104.772,394.104 120.334,394.104 120.334,375.207 120.334,354.643 104.772,354.643 
			65.866,354.643 50.303,354.643 50.303,375.207 50.303,462.19 50.303,482.755 65.866,482.755 		"/>
		<path fill="#FFFFFF" d="M146.457,431.343h11.209l17.137,51.412h15.563l-17.136-51.412h19.915v-3.891v-16.674v-35.571v-20.565
			h-15.562h-31.125h-15.562v20.565v35.571v20.565v51.412h15.562V431.343z M146.457,375.207h31.125v35.571h-31.125V375.207z"/>
		<polygon fill="#FFFFFF" points="220.934,354.643 205.372,354.643 205.372,375.207 205.372,462.19 205.372,482.755 
			220.934,482.755 275.403,482.755 275.403,481.921 275.403,462.19 275.403,451.352 259.841,451.352 259.841,462.19 220.934,462.19 
			220.934,431.343 244.278,431.343 244.278,410.778 220.934,410.778 220.934,375.207 259.841,375.207 259.841,394.104 
			275.403,394.104 275.403,375.207 275.403,354.643 259.841,354.643 		"/>
		<polygon fill="#FFFFFF" points="648.346,482.755 648.346,481.921 648.346,462.19 648.346,451.352 632.783,451.352 632.783,462.19 
			593.877,462.19 593.877,431.343 617.221,431.343 617.221,410.778 593.877,410.778 593.877,375.207 632.783,375.207 
			632.783,394.104 648.346,394.104 648.346,375.207 648.346,354.643 632.783,354.643 593.877,354.643 578.315,354.643 
			578.315,375.207 578.315,462.19 578.315,482.755 593.877,482.755 		"/>
		<path fill="#FFFFFF" d="M302.082,431.343h38.906v51.412h15.562V375.207v-20.565h-15.562h-38.906h-15.562v20.565v107.548h15.562
			V431.343z M340.988,375.207v35.571h-38.906v-35.571H340.988z"/>
		<polygon fill="#FFFFFF" points="396.26,482.755 421.332,482.755 421.332,375.207 452.148,375.207 452.148,354.643 
			421.332,354.643 396.26,354.643 365.443,354.643 365.443,375.207 396.26,375.207 		"/>
		<rect x="460.926" y="354.643" fill="#FFFFFF" width="22.232" height="128.112"/>
		<polygon fill="#FFFFFF" points="523.568,482.755 537.744,482.755 541.484,482.755 568.633,354.643 550.716,354.643 530.574,449.7 
			509.951,354.643 491.61,354.643 519.403,482.755 		"/>
		<polygon fill="#FFFFFF" points="50.303,533.33 102.271,533.33 102.271,680.895 128.949,680.895 128.949,533.33 180.917,533.33 
			180.917,502.668 50.303,502.668 		"/>
		<path fill="#FFFFFF" d="M286.519,502.668v9.819v20.843v116.903v30.662h26.679h51.133v-9.819v-20.842V533.33v-30.662h-26.678
			H286.519z M337.653,650.233h-24.455V533.33h24.455V650.233z"/>
		<path fill="#FFFFFF" d="M379.338,502.668v9.819v20.843v116.903v30.662h26.679h51.134v-9.819v-20.842V533.33v-30.662h-26.678
			H379.338z M430.472,650.233h-24.455V533.33h24.455V650.233z"/>
		<path fill="#FFFFFF" d="M215.376,502.668h-26.679v30.662v34.902v30.662v82.001h26.679v-82.001h8.444l22.125,82.001h26.678
			l-22.125-82.001h22.125v-3.528v-27.134V533.33v-30.662h-26.678H215.376z M245.946,568.231h-30.569V533.33h30.569V568.231z"/>
		<path fill="#FFFFFF" d="M496.89,503.305h-26.679v30.662v34.902v30.662v82.001h26.679v-82.001h57.248v-3.528v-27.134v-34.902
			v-30.662h-26.679H496.89z M527.459,568.868H496.89v-34.902h30.569V568.868z"/>
		<polygon fill="#FFFFFF" points="592.21,502.668 565.531,502.668 565.531,533.33 565.531,568.231 565.531,596.691 565.531,598.893 
			622.779,598.893 622.779,650.233 592.21,650.233 592.21,641.989 565.531,641.989 565.531,650.233 565.531,680.895 592.21,680.895 
			622.779,680.895 649.457,680.895 649.457,650.233 649.457,598.893 649.457,568.231 622.779,568.231 592.21,568.231 592.21,533.33 
			622.779,533.33 622.779,541.204 649.457,541.204 649.457,533.33 649.457,506.723 649.457,502.668 		"/>
	</g>
	<g>
		<path fill="#FFFFFF" d="M439.34,140.297c0-34.897-29.006-63.181-63.904-63.181c0,0-10.405-0.722-19.302-0.722
			c-0.358,0-0.719,0.002-1.081,0.004c-8.637,0.054-18.227,0.718-18.227,0.718c-34.891,0-63.903,28.284-63.903,63.181l-1.329,20.816
			h83.46h85.617L439.34,140.297z"/>
		<path d="M284.917,172.425c-2.647,38.508,18.291,24.309,18.291,24.309l42.119-24.309H284.917z"/>
		<path d="M427.349,172.425h-59.575l41.537,24.309C409.31,196.734,429.96,210.933,427.349,172.425z"/>
		<path d="M369.008,217.071c-5.415-5.776-12.876-6.137-12.876-6.137s-0.401,0.02-1.078,0.121c-2.259,0.335-7.632,1.573-11.798,6.016
			c-5.415,5.776-19.013,19.254-34.778,26.835l2.527,2.287c0,0,15.907-0.435,30.325-7.22c7.394-3.48,11.831-4.129,13.723-4.222
			c0.726-0.036,1.078,0.01,1.078,0.01s4.573-0.602,14.802,4.212c14.418,6.786,30.325,7.22,30.325,7.22l2.527-2.287
			C388.021,236.326,374.423,222.848,369.008,217.071z"/>
		<path d="M316.059,297.846c-4.104,0-7.432,3.327-7.432,7.432s3.327,7.432,7.432,7.432c4.104,0,7.432-3.327,7.432-7.432
			S320.163,297.846,316.059,297.846z M316.601,310.905c-2.808,0-5.085-2.277-5.085-5.085c0-2.808,2.277-5.085,5.085-5.085
			c2.808,0,5.085,2.277,5.085,5.085C321.686,308.628,319.409,310.905,316.601,310.905z"/>
		<circle cx="316.601" cy="305.82" r="5.085"/>
		<path d="M396.203,297.846c-4.104,0-7.432,3.327-7.432,7.432s3.327,7.432,7.432,7.432c4.104,0,7.432-3.327,7.432-7.432
			S400.308,297.846,396.203,297.846z M395.662,310.905c-2.808,0-5.085-2.277-5.085-5.085c0-2.808,2.277-5.085,5.085-5.085
			c2.808,0,5.085,2.277,5.085,5.085C400.747,308.628,398.47,310.905,395.662,310.905z"/>
		<polygon points="441.692,161.114 440.67,161.114 355.053,161.114 271.593,161.114 270.571,161.114 268.766,167.853 
			270.233,167.853 355.053,167.853 442.03,167.853 443.497,167.853 		"/>
		<path d="M280.504,221.283V209.37l-6.859-10.077c0,0,0.569,8.749,1.809,12.725C276.694,215.993,280.504,221.283,280.504,221.283z"
			/>
		<path d="M438.618,199.292l-6.859,10.077v11.914c0,0,3.81-5.29,5.05-9.266C438.049,208.041,438.618,199.292,438.618,199.292z"/>
		<circle cx="395.662" cy="305.82" r="5.085"/>
		<polygon fill="#FFFFFF" points="305.324,20.468 291.766,24.386 306.968,68.147 312.842,66.107 		"/>
		<polygon fill="#FFFFFF" points="266.197,25.215 252.604,37.066 289.298,79.614 296.146,74.778 		"/>
		<polygon fill="#FFFFFF" points="243.131,61.481 235.869,73.642 277.493,92.649 281.197,87.072 		"/>
		<polygon fill="#494949" points="276.404,148.118 272.419,147.627 271.593,161.114 277.126,161.114 		"/>
		<polygon fill="#494949" points="435.958,148.118 439.861,147.627 440.67,161.114 435.251,161.114 		"/>
		<polygon points="375.551,289.777 372.297,286.167 372.297,282.757 368.405,279.147 368.405,276.535 364.158,273.647 
			364.158,271.792 360.222,267.794 352.041,267.794 348.105,271.792 348.105,273.647 343.858,276.535 343.858,279.147 
			339.966,282.757 339.966,286.167 336.712,289.777 336.712,316.017 339.966,319.627 339.966,322.146 343.858,325.315 
			348.105,325.315 348.105,326.64 352.041,328.806 360.222,328.806 364.158,326.64 364.158,325.315 368.405,325.315 
			372.297,322.146 372.297,319.627 375.551,316.017 		"/>
		<path fill="#FFFFFF" d="M463.892,247.82c0-12.417-8.143-22.93-19.379-26.497l-1.229-19.254c1.433-2.489,2.524-6.035,3.071-10.157
			c0.27-0.268,0.438-0.639,0.438-1.05v-10.579c0-0.453-0.208-0.854-0.53-1.126c-0.738-4.959-2.271-9.017-4.233-11.305h-86.977
			h-84.82c-1.974,2.301-3.514,6.394-4.246,11.394c-0.263,0.267-0.426,0.632-0.426,1.037v3.542c-0.028,0.669-0.044,1.346-0.044,2.033
			c0,0.671,0.017,1.331,0.044,1.985v3.019c0,0.35,0.127,0.667,0.33,0.921c0.541,4.178,1.64,7.771,3.088,10.287l-1.229,19.254
			c-11.236,3.567-19.379,14.08-19.379,26.497c0,9.789,1.993,17.735,5.361,23.755l-0.005,0.003l0.037,0.057
			c0.736,1.31,1.54,2.525,2.401,3.65l24.878,37.816c0,0,9.025,13.538,31.047,13.538c13.042,0,20.889-4.602,25.123-10.067
			l-0.501-0.556v-26.239l3.254-3.611v-3.41l3.892-3.611v-2.612l4.246-2.888v-1.854l3.936-3.998h8.181l3.936,3.998v1.854l4.246,2.888
			v2.612l3.892,3.611v3.41l3.254,3.611v26.239l-0.501,0.556c4.234,5.465,12.081,10.067,25.123,10.067
			c22.022,0,31.047-13.538,31.047-13.538l24.878-37.816c0.861-1.125,1.665-2.34,2.401-3.65l0.037-0.057l-0.005-0.003
			C461.899,265.555,463.892,257.609,463.892,247.82z M280.504,221.283c0,0-3.81-5.29-5.05-9.266
			c-1.24-3.976-1.809-12.725-1.809-12.725l6.859,10.077V221.283z M284.917,172.425h60.41l-42.119,24.309
			C303.208,196.734,282.27,210.933,284.917,172.425z M316.059,312.71c-4.104,0-7.432-3.327-7.432-7.432s3.327-7.432,7.432-7.432
			c4.104,0,7.432,3.327,7.432,7.432S320.163,312.71,316.059,312.71z M396.203,312.71c-4.104,0-7.432-3.327-7.432-7.432
			s3.327-7.432,7.432-7.432c4.104,0,7.432,3.327,7.432,7.432S400.308,312.71,396.203,312.71z M401.259,246.194
			c0,0-15.907-0.435-30.325-7.22c-10.229-4.814-14.802-4.212-14.802-4.212s-0.353-0.046-1.078-0.01
			c-1.893,0.093-6.329,0.742-13.723,4.222c-14.418,6.786-30.325,7.22-30.325,7.22l-2.527-2.287
			c15.764-7.581,29.363-21.059,34.778-26.835c4.166-4.444,9.539-5.681,11.798-6.016c0.678-0.101,1.078-0.121,1.078-0.121
			s7.461,0.361,12.876,6.137s19.013,19.254,34.778,26.835L401.259,246.194z M409.31,196.734l-41.537-24.309h59.575
			C429.96,210.933,409.31,196.734,409.31,196.734z M436.809,212.017c-1.24,3.976-5.05,9.266-5.05,9.266V209.37l6.859-10.077
			C438.618,199.292,438.049,208.041,436.809,212.017z"/>
	</g>
</g>
</svg>
