<?xml version="1.0" encoding="utf-8"?>
<!-- Generator: Adobe Illustrator 17.0.0, SVG Export Plug-In . SVG Version: 6.00 Build 0)  -->
<!DOCTYPE svg PUBLIC "-//W3C//DTD SVG 1.1//EN" "http://www.w3.org/Graphics/SVG/1.1/DTD/svg11.dtd">
<svg version="1.1" id="Layer_1" xmlns="http://www.w3.org/2000/svg" xmlns:xlink="http://www.w3.org/1999/xlink" x="0px" y="0px"
	 width="60px" height="60px" viewBox="0 0 60 60" enable-background="new 0 0 60 60" xml:space="preserve">
<g id="g10" transform="matrix(1.25,0,0,-1.25,0,277.725)">
	<g id="g12" transform="scale(0.1,0.1)">
		<path id="path14" fill="#60A9DD" d="M156.058,1801.284c-51.597,0-99.623,15.125-140.058,41.048
			c7.148-0.844,14.421-1.275,21.796-1.275c42.806,0,82.202,14.607,113.472,39.112c-39.982,0.737-73.723,27.153-85.35,63.453
			c5.579-1.067,11.302-1.639,17.19-1.639c8.332,0,16.404,1.116,24.071,3.204c-41.797,8.393-73.292,45.321-73.292,89.59
			c0,0.386,0.001,0.767,0.008,1.148c12.32-6.843,26.408-10.953,41.384-11.427c-24.516,16.384-40.646,44.35-40.646,76.048
			c0,16.746,4.504,32.439,12.369,45.933c45.064-55.277,112.388-91.652,188.323-95.462c-1.557,6.687-2.367,13.66-2.367,20.821
			c0,50.457,40.91,91.365,91.37,91.365c26.278,0,50.024-11.096,66.691-28.854c20.812,4.098,40.366,11.702,58.019,22.173
			c-6.822-21.336-21.308-39.242-40.173-50.55c18.482,2.209,36.091,7.12,52.477,14.387c-12.25-18.323-27.741-34.415-45.591-47.297
			c0.176-3.917,0.264-7.858,0.264-11.82C416.015,1940.507,324.115,1801.284,156.058,1801.284"/>
	</g>
</g>
</svg>
