<?xml version="1.0" encoding="utf-8"?>
<!-- Generator: Adobe Illustrator 17.0.0, SVG Export Plug-In . SVG Version: 6.00 Build 0)  -->
<!DOCTYPE svg PUBLIC "-//W3C//DTD SVG 1.1//EN" "http://www.w3.org/Graphics/SVG/1.1/DTD/svg11.dtd">
<svg version="1.1" id="Layer_1" xmlns="http://www.w3.org/2000/svg" xmlns:xlink="http://www.w3.org/1999/xlink" x="0px" y="0px"
	 width="60px" height="60px" viewBox="0 0 60 60" enable-background="new 0 0 60 60" xml:space="preserve">
<g>
	<path fill="#FFFFFF" d="M46.424,22.317c0-6.208-5.16-11.239-11.368-11.239c0,0-1.851-0.128-3.434-0.128
		c-0.064,0-0.128,0-0.192,0.001c-1.536,0.01-3.243,0.128-3.243,0.128c-6.207,0-11.368,5.032-11.368,11.239l-0.237,3.703H31.43H46.66
		L46.424,22.317z"/>
	<path d="M18.953,28.032c-0.471,6.85,3.254,4.324,3.254,4.324l7.493-4.324H18.953z"/>
	<path d="M44.291,28.032H33.693l7.389,4.324C41.082,32.357,44.755,34.883,44.291,28.032z"/>
	<path d="M33.913,35.975c-0.963-1.028-2.29-1.092-2.29-1.092s-0.071,0.004-0.192,0.021c-0.402,0.06-1.358,0.28-2.099,1.07
		c-0.963,1.028-3.382,3.425-6.187,4.774l0.449,0.407c0,0,2.83-0.077,5.395-1.284c1.315-0.619,2.105-0.735,2.441-0.751
		c0.129-0.006,0.192,0.002,0.192,0.002s0.814-0.107,2.633,0.749c2.565,1.207,5.395,1.284,5.395,1.284l0.449-0.407
		C37.295,39.4,34.876,37.002,33.913,35.975z"/>
	<path d="M24.493,50.344c-0.73,0-1.322,0.592-1.322,1.322c0,0.73,0.592,1.322,1.322,1.322c0.73,0,1.322-0.592,1.322-1.322
		C25.816,50.936,25.223,50.344,24.493,50.344z M24.59,52.667c-0.499,0-0.904-0.405-0.904-0.904s0.405-0.904,0.904-0.904
		c0.499,0,0.904,0.405,0.904,0.904S25.089,52.667,24.59,52.667z"/>
	<circle cx="24.59" cy="51.763" r="0.904"/>
	<path d="M38.75,50.344c-0.73,0-1.322,0.592-1.322,1.322c0,0.73,0.592,1.322,1.322,1.322c0.73,0,1.322-0.592,1.322-1.322
		C40.073,50.936,39.48,50.344,38.75,50.344z M38.654,52.667c-0.499,0-0.904-0.405-0.904-0.904s0.405-0.904,0.904-0.904
		s0.904,0.405,0.904,0.904S39.154,52.667,38.654,52.667z"/>
	<polygon points="46.843,26.02 46.661,26.02 31.43,26.02 16.583,26.02 16.401,26.02 16.08,27.219 16.341,27.219 31.43,27.219 
		46.903,27.219 47.164,27.219 	"/>
	<path d="M18.168,36.724v-2.12l-1.22-1.793c0,0,0.101,1.556,0.322,2.264C17.49,35.783,18.168,36.724,18.168,36.724z"/>
	<path d="M46.296,32.812l-1.22,1.793v2.12c0,0,0.678-0.941,0.898-1.648C46.195,34.368,46.296,32.812,46.296,32.812z"/>
	<circle cx="38.654" cy="51.763" r="0.904"/>
	<polygon fill="#FFFFFF" points="22.584,1 20.171,1.697 22.876,9.482 23.921,9.119 	"/>
	<polygon fill="#FFFFFF" points="15.623,1.845 13.205,3.953 19.733,11.522 20.951,10.661 	"/>
	<polygon fill="#FFFFFF" points="11.52,8.296 10.228,10.459 17.632,13.841 18.291,12.849 	"/>
	<polygon fill="#494949" points="17.439,23.708 16.73,23.621 16.583,26.02 17.567,26.02 	"/>
	<polygon fill="#494949" points="45.823,23.708 46.517,23.621 46.661,26.02 45.697,26.02 	"/>
	<polygon points="35.076,48.909 34.498,48.266 34.498,47.66 33.805,47.017 33.805,46.553 33.05,46.039 33.05,45.709 32.35,44.998 
		30.894,44.998 30.194,45.709 30.194,46.039 29.438,46.553 29.438,47.017 28.746,47.66 28.746,48.266 28.167,48.909 28.167,53.577 
		28.746,54.219 28.746,54.667 29.438,55.231 30.194,55.231 30.194,55.466 30.894,55.852 32.35,55.852 33.05,55.466 33.05,55.231 
		33.805,55.231 34.498,54.667 34.498,54.219 35.076,53.577 	"/>
	<path fill="#FFFFFF" d="M50.792,41.445c0-2.209-1.448-4.079-3.447-4.714l-0.219-3.425c0.255-0.443,0.449-1.074,0.546-1.807
		c0.048-0.048,0.078-0.114,0.078-0.187V29.43c0-0.081-0.037-0.152-0.094-0.2c-0.131-0.882-0.404-1.604-0.753-2.011H31.43H16.341
		c-0.351,0.409-0.625,1.137-0.755,2.027c-0.047,0.048-0.076,0.112-0.076,0.184v0.63c-0.005,0.119-0.008,0.239-0.008,0.362
		c0,0.119,0.003,0.237,0.008,0.353v0.537c0,0.062,0.023,0.119,0.059,0.164c0.096,0.743,0.292,1.382,0.55,1.83l-0.219,3.425
		c-1.999,0.634-3.447,2.505-3.447,4.714c0,1.741,0.355,3.155,0.953,4.226l-0.001,0.001l0.007,0.01
		c0.131,0.233,0.274,0.449,0.427,0.649l4.426,6.727c0,0,1.606,2.408,5.523,2.408c2.32,0,3.716-0.818,4.469-1.791l-0.089-0.099
		v-4.668l0.579-0.642V47.66l0.692-0.642v-0.465l0.755-0.514v-0.33l0.7-0.711h1.455l0.7,0.711v0.33l0.755,0.514v0.465l0.692,0.642
		v0.607l0.579,0.642v4.668l-0.089,0.099c0.753,0.972,2.149,1.791,4.469,1.791c3.918,0,5.523-2.408,5.523-2.408l4.426-6.727
		c0.153-0.2,0.296-0.416,0.427-0.649l0.007-0.01l-0.001-0.001C50.437,44.6,50.792,43.186,50.792,41.445z M18.168,36.724
		c0,0-0.678-0.941-0.898-1.648c-0.221-0.707-0.322-2.264-0.322-2.264l1.22,1.793L18.168,36.724L18.168,36.724z M18.953,28.032H29.7
		l-7.493,4.324C22.207,32.357,18.482,34.883,18.953,28.032z M24.493,52.988c-0.73,0-1.322-0.592-1.322-1.322
		c0-0.73,0.592-1.322,1.322-1.322c0.73,0,1.322,0.592,1.322,1.322C25.816,52.396,25.223,52.988,24.493,52.988z M38.75,52.988
		c-0.73,0-1.322-0.592-1.322-1.322c0-0.73,0.592-1.322,1.322-1.322c0.73,0,1.322,0.592,1.322,1.322
		C40.073,52.396,39.48,52.988,38.75,52.988z M39.65,41.155c0,0-2.83-0.077-5.395-1.284c-1.82-0.856-2.633-0.749-2.633-0.749
		s-0.063-0.008-0.192-0.002c-0.337,0.017-1.126,0.132-2.441,0.751c-2.565,1.207-5.395,1.284-5.395,1.284l-0.449-0.407
		c2.804-1.349,5.224-3.746,6.187-4.774c0.741-0.791,1.697-1.011,2.099-1.07c0.121-0.018,0.192-0.021,0.192-0.021
		s1.327,0.064,2.29,1.092c0.963,1.028,3.382,3.425,6.187,4.774L39.65,41.155z M41.082,32.357l-7.389-4.324h10.598
		C44.755,34.883,41.082,32.357,41.082,32.357z M45.974,35.075c-0.221,0.707-0.898,1.648-0.898,1.648v-2.12l1.22-1.793
		C46.296,32.812,46.195,34.368,45.974,35.075z"/>
</g>
</svg>
